<svg width="32" height="32" viewBox="0 0 32 32" fill="none" xmlns="http://www.w3.org/2000/svg">
<path d="M17.3332 25.3333V19.9999H21.3332L15.9998 13.3333L10.6665 19.9999H14.6665V25.3333H17.3332Z" fill="#FCC45B"/>
<path d="M9.33317 25.3334H11.9998V22.6667H9.33317C7.12784 22.6667 5.33317 20.8721 5.33317 18.6667C5.33317 16.7947 6.93184 14.9921 8.89717 14.6467L9.67184 14.5107L9.92784 13.7667C10.8652 11.0321 13.1932 9.33341 15.9998 9.33341C19.6758 9.33341 22.6665 12.3241 22.6665 16.0001V17.3334H23.9998C25.4705 17.3334 26.6665 18.5294 26.6665 20.0001C26.6665 21.4707 25.4705 22.6667 23.9998 22.6667H19.9998V25.3334H23.9998C26.9412 25.3334 29.3332 22.9414 29.3332 20.0001C29.3311 18.8049 28.9287 17.6449 28.1901 16.7052C27.4515 15.7655 26.4194 15.1004 25.2585 14.8161C24.6758 10.2267 20.7465 6.66675 15.9998 6.66675C12.3252 6.66675 9.13317 8.81475 7.67584 12.2001C4.81184 13.0561 2.6665 15.7601 2.6665 18.6667C2.6665 22.3427 5.65717 25.3334 9.33317 25.3334Z" fill="#FCC45B"/>
</svg>
