<svg width="39" height="40" viewBox="0 0 39 40" fill="none" xmlns="http://www.w3.org/2000/svg">
<path d="M19.5 36.0999C28.3091 36.0999 35.75 28.5862 35.75 19.6908C35.75 10.7955 28.3091 3.28174 19.5 3.28174C10.6909 3.28174 3.25 10.7955 3.25 19.6908C3.25 28.5862 10.6909 36.0999 19.5 36.0999ZM19.5 6.56356C26.5476 6.56356 32.5 12.5742 32.5 19.6908C32.5 26.8074 26.5476 32.8181 19.5 32.8181C12.4524 32.8181 6.5 26.8074 6.5 19.6908C6.5 12.5742 12.4524 6.56356 19.5 6.56356Z" fill="#F1B758"/>
<path d="M19.5 27.8954C20.9641 27.8954 23.6941 27.6197 25.5239 25.7754L23.2261 23.4518C22.5062 24.1788 21.112 24.6136 19.5 24.6136C16.8577 24.6136 14.625 22.359 14.625 19.6909C14.625 17.0228 16.8577 14.7681 19.5 14.7681C21.1136 14.7681 22.5079 15.203 23.2261 15.9283L25.5239 13.608C23.6957 11.762 20.9641 11.4863 19.5 11.4863C15.0199 11.4863 11.375 15.1669 11.375 19.6909C11.375 24.2149 15.0199 27.8954 19.5 27.8954Z" fill="#F1B758"/>
</svg>
