<svg width="32" height="32" viewBox="0 0 32 32" fill="none" xmlns="http://www.w3.org/2000/svg">
<path d="M17.3334 25.3333V19.9999H21.3334L16.0001 13.3333L10.6667 19.9999H14.6667V25.3333H17.3334Z" fill="white"/>
<path d="M9.33341 25.3334H12.0001V22.6667H9.33341C7.12808 22.6667 5.33341 20.8721 5.33341 18.6667C5.33341 16.7947 6.93208 14.9921 8.89741 14.6467L9.67208 14.5107L9.92808 13.7667C10.8654 11.0321 13.1934 9.33341 16.0001 9.33341C19.6761 9.33341 22.6667 12.3241 22.6667 16.0001V17.3334H24.0001C25.4707 17.3334 26.6667 18.5294 26.6667 20.0001C26.6667 21.4707 25.4707 22.6667 24.0001 22.6667H20.0001V25.3334H24.0001C26.9414 25.3334 29.3334 22.9414 29.3334 20.0001C29.3314 18.8049 28.9289 17.6449 28.1903 16.7052C27.4518 15.7655 26.4196 15.1004 25.2587 14.8161C24.6761 10.2267 20.7467 6.66675 16.0001 6.66675C12.3254 6.66675 9.13341 8.81475 7.67608 12.2001C4.81208 13.0561 2.66675 15.7601 2.66675 18.6667C2.66675 22.3427 5.65741 25.3334 9.33341 25.3334Z" fill="white"/>
</svg>
