<svg width="24" height="24" viewBox="0 0 24 24" fill="none" xmlns="http://www.w3.org/2000/svg">
<rect width="24" height="24" fill="#F1B758"/>
<path d="M11.986 12.341C9.161 12.341 6.813 9.995 6.813 7.219C6.813 4.347 9.161 2 11.987 2C14.909 2 17.16 4.346 17.16 7.219C17.155 8.58205 16.6089 9.88734 15.6419 10.848C14.6749 11.8086 13.3661 12.346 12.003 12.342L11.986 12.341V12.341ZM11.986 5.017C10.79 5.017 9.88 6.022 9.88 7.22C9.88 8.416 10.79 9.326 11.987 9.326C13.232 9.326 14.094 8.416 14.094 7.22C14.095 6.021 13.232 5.017 11.986 5.017ZM14.046 16.603L16.969 19.428C17.544 20.049 17.544 20.959 16.969 21.534C16.347 22.155 15.388 22.155 14.909 21.534L11.987 18.661L9.161 21.534C8.874 21.821 8.49 21.964 8.058 21.964C7.723 21.964 7.34 21.82 7.004 21.534C6.429 20.959 6.429 20.049 7.004 19.427L9.974 16.602C8.90144 16.2844 7.87254 15.8346 6.911 15.263C6.192 14.88 6.049 13.923 6.432 13.204C6.911 12.486 7.773 12.295 8.54 12.774C9.5786 13.4078 10.7718 13.7431 11.9885 13.7431C13.2052 13.7431 14.3984 13.4078 15.437 12.774C16.204 12.295 17.113 12.486 17.544 13.204C17.976 13.923 17.783 14.879 17.112 15.263C16.203 15.838 15.149 16.269 14.047 16.604L14.046 16.603V16.603Z" fill="white"/>
</svg>
