<svg width="30" height="31" viewBox="0 0 30 31" fill="none" xmlns="http://www.w3.org/2000/svg">
<path d="M28.7684 12.6247H14.8901V18.5855H22.8767C22.1334 22.3734 19.0217 24.5498 14.8901 24.5498C13.734 24.5518 12.5888 24.3173 11.5204 23.8597C10.4519 23.4021 9.48113 22.7304 8.66371 21.8831C7.84629 21.0358 7.19832 20.0296 6.75696 18.9222C6.3156 17.8148 6.08954 16.6279 6.09173 15.4298C6.08976 14.2318 6.31599 13.0452 6.75744 11.938C7.1989 10.8308 7.84691 9.82475 8.6643 8.97763C9.48169 8.13052 10.4524 7.45895 11.5208 7.00144C12.5891 6.54393 13.7341 6.30947 14.8901 6.31152C16.9884 6.31152 18.8851 7.08361 20.3734 8.34625L24.7067 3.85707C22.0667 1.4717 18.6817 6.57366e-05 14.8901 6.57366e-05C12.9331 -0.00586256 10.9943 0.389237 9.18515 1.16264C7.37603 1.93604 5.7323 3.07249 4.34849 4.50662C2.96469 5.94074 1.86812 7.64424 1.12185 9.51915C0.375585 11.3941 -0.00565187 13.4034 6.84186e-05 15.4315C-0.00587308 17.4597 0.375213 19.4691 1.1214 21.3442C1.86759 23.2192 2.96415 24.9228 4.348 26.3569C5.73185 27.7911 7.37567 28.9275 9.18489 29.7009C10.9941 30.4742 12.933 30.8691 14.8901 30.863C22.3351 30.863 29.1051 25.2511 29.1051 15.4315C29.1051 14.5195 28.9701 13.5367 28.7684 12.6247Z" fill="black"/>
</svg>
