<svg width="32" height="30" viewBox="0 0 32 30" fill="none" xmlns="http://www.w3.org/2000/svg">
<path d="M21.6891 11.0769C21.6891 16.6199 17.0803 21.1538 11.3445 21.1538C5.60877 21.1538 1 16.6199 1 11.0769C1 5.53396 5.60877 1 11.3445 1C17.0803 1 21.6891 5.53396 21.6891 11.0769Z" fill="#FFA000"/>
<path d="M21.6891 11.0769C21.6891 16.6199 17.0803 21.1538 11.3445 21.1538C5.60877 21.1538 1 16.6199 1 11.0769C1 5.53396 5.60877 1 11.3445 1C17.0803 1 21.6891 5.53396 21.6891 11.0769Z" stroke="#F4CF92" stroke-width="2"/>
<path d="M21.6891 11.0769C21.6891 16.6199 17.0803 21.1538 11.3445 21.1538C5.60877 21.1538 1 16.6199 1 11.0769C1 5.53396 5.60877 1 11.3445 1C17.0803 1 21.6891 5.53396 21.6891 11.0769Z" stroke="#FFA000" stroke-width="2"/>
<line y1="-1" x2="17.195" y2="-1" transform="matrix(0.734608 0.678492 -0.638189 0.769879 17.3684 18.3334)" stroke="#F4CF92" stroke-width="2"/>
<line y1="-1" x2="17.195" y2="-1" transform="matrix(0.734608 0.678492 -0.638189 0.769879 17.3684 18.3334)" stroke="#FFA000" stroke-width="2"/>
</svg>
