<svg width="412" height="496" viewBox="0 0 412 496" fill="none" xmlns="http://www.w3.org/2000/svg">
<g clip-path="url(#clip0_201_205)">
<g clip-path="url(#clip1_201_205)">
<g clip-path="url(#clip2_201_205)">
<line x1="146" y1="319.012" x2="146" y2="150" stroke="#F1B758" stroke-width="6"/>
<line x1="277" y1="319" x2="277" y2="196" stroke="#F1B758" stroke-width="6"/>
<line x1="226" y1="200" x2="226" y2="145" stroke="#F1B758" stroke-width="6"/>
<line x1="280.897" y1="199.14" x2="222.897" y2="142.14" stroke="#F1B758" stroke-width="6"/>
<line x1="144" y1="316" x2="280" y2="316" stroke="#F1B758" stroke-width="6"/>
<line x1="143" y1="147" x2="227" y2="147" stroke="#F1B758" stroke-width="6"/>
<line x1="229" y1="197" x2="280" y2="197" stroke="#F1B758" stroke-width="6"/>
<rect x="216" y="139" width="22" height="5" fill="white"/>
<path d="M244 250.5L196 284.708V216.292L244 250.5Z" fill="#F1B758"/>
<path d="M232.711 247.115L206.589 272.251L199.699 232.135L232.711 247.115Z" fill="white"/>
<path d="M223.71 247.002L210.927 263.829L203.46 240.96L223.71 247.002Z" fill="#F1B758"/>
<rect x="280" y="186" width="3" height="20" fill="white"/>
</g>
<rect x="141.727" y="139.577" width="142.932" height="183.431" stroke="white" stroke-width="0.1"/>
<g clip-path="url(#clip3_201_205)">
<path d="M77.88 353.64C78.7333 352.04 80.1733 350.92 82.2 350.28C84.2267 349.64 86.8933 349.32 90.2 349.32C93.6133 349.32 96.3333 349.64 98.36 350.28C100.387 350.92 101.773 352.04 102.52 353.64C103.373 355.24 103.853 356.68 103.96 357.96C104.173 359.133 104.28 360.947 104.28 363.4V458.92C104.28 461.373 104.173 463.24 103.96 464.52C103.853 465.693 103.373 467.027 102.52 468.52C100.92 471.4 96.3867 472.84 88.92 472.84C81.56 472.84 77.4533 470.227 76.6 465C72.12 470.12 65.88 472.68 57.88 472.68C48.28 472.68 39.5333 468.52 31.64 460.2C23.7467 451.773 19.8 442.013 19.8 430.92C19.8 419.72 23.7467 409.907 31.64 401.48C39.64 393.053 48.3867 388.84 57.88 388.84C65.7733 388.84 71.9067 391.507 76.28 396.84V363.24C76.28 360.787 76.3333 358.973 76.44 357.8C76.6533 356.52 77.1333 355.133 77.88 353.64ZM51.96 440.52C54.7333 443.4 58.0933 444.84 62.04 444.84C65.9867 444.84 69.24 443.4 71.8 440.52C74.4667 437.64 75.8 434.493 75.8 431.08C75.8 427.56 74.52 424.307 71.96 421.32C69.5067 418.333 66.1467 416.84 61.88 416.84C57.6133 416.84 54.2 418.333 51.64 421.32C49.08 424.2 47.8 427.4 47.8 430.92C47.8 434.44 49.1867 437.64 51.96 440.52ZM171.745 397.64C172.385 391.667 176.598 388.68 184.385 388.68C188.545 388.68 191.638 389 193.665 389.64C195.692 390.28 197.078 391.4 197.825 393C198.678 394.6 199.158 396.04 199.265 397.32C199.478 398.493 199.585 400.307 199.585 402.76V458.76C199.585 461.213 199.478 463.08 199.265 464.36C199.158 465.533 198.732 466.92 197.985 468.52C196.492 471.293 192.812 472.68 186.945 472.68C181.185 472.68 177.292 471.987 175.265 470.6C173.345 469.107 172.225 466.973 171.905 464.2C167.958 469.853 161.345 472.68 152.065 472.68C142.892 472.68 134.358 468.467 126.465 460.04C118.572 451.613 114.625 441.853 114.625 430.76C114.625 419.56 118.572 409.8 126.465 401.48C134.465 393.053 143.212 388.84 152.705 388.84C156.332 388.84 159.638 389.48 162.625 390.76C165.612 392.04 167.692 393.267 168.865 394.44C170.038 395.507 170.998 396.573 171.745 397.64ZM142.625 430.92C142.625 434.44 144.012 437.64 146.785 440.52C149.558 443.293 152.918 444.68 156.865 444.68C160.812 444.68 164.065 443.24 166.625 440.36C169.292 437.48 170.625 434.333 170.625 430.92C170.625 427.4 169.345 424.147 166.785 421.16C164.332 418.173 160.972 416.68 156.705 416.68C152.545 416.68 149.132 418.173 146.465 421.16C143.905 424.147 142.625 427.4 142.625 430.92ZM258.578 388.84C268.071 388.84 276.764 393.053 284.658 401.48C292.658 409.907 296.658 419.72 296.658 430.92C296.658 442.013 292.711 451.773 284.818 460.2C276.924 468.52 268.444 472.68 259.378 472.68C250.311 472.68 243.858 470.12 240.018 465C239.164 470.227 234.578 472.84 226.258 472.84C219.538 472.84 215.431 471.4 213.938 468.52C213.191 466.92 212.711 465.533 212.498 464.36C212.391 463.08 212.338 461.213 212.338 458.76V363.24C212.338 360.787 212.391 358.973 212.498 357.8C212.711 356.52 213.191 355.133 213.938 353.64C215.431 350.76 219.591 349.32 226.418 349.32C233.138 349.32 237.191 350.76 238.578 353.64C239.431 355.24 239.911 356.68 240.018 357.96C240.231 359.133 240.338 360.947 240.338 363.4V396.68C244.604 391.453 250.684 388.84 258.578 388.84ZM244.498 440.52C247.164 443.4 250.471 444.84 254.418 444.84C258.364 444.84 261.724 443.4 264.498 440.52C267.271 437.64 268.658 434.44 268.658 430.92C268.658 427.4 267.378 424.2 264.818 421.32C262.258 418.333 258.844 416.84 254.578 416.84C250.311 416.84 246.898 418.333 244.338 421.32C241.884 424.307 240.658 427.56 240.658 431.08C240.658 434.493 241.938 437.64 244.498 440.52ZM345.98 444.84H373.34C377.607 444.84 380.647 445.373 382.46 446.44C384.38 447.507 385.66 449.053 386.3 451.08C386.94 453.107 387.26 455.773 387.26 459.08C387.26 462.387 386.94 465.053 386.3 467.08C385.66 469.107 384.54 470.547 382.94 471.4C381.34 472.147 379.9 472.627 378.62 472.84C377.447 472.947 375.633 473 373.18 473H315.42C311.687 473 308.433 471.613 305.66 468.84C302.887 466.067 301.5 462.76 301.5 458.92C301.5 455.08 302.887 451.827 305.66 449.16C308.433 446.387 312.7 442.44 318.46 437.32C324.22 432.2 329.447 427.613 334.14 423.56C338.833 419.4 341.393 417.107 341.82 416.68H319.26C313.18 416.68 309.34 415.667 307.74 413.64C305.927 411.293 305.02 408.2 305.02 404.36C305.02 400.52 305.287 397.693 305.82 395.88C306.353 393.96 306.993 392.573 307.74 391.72C308.487 390.76 309.553 390.013 310.94 389.48C312.753 388.947 315.527 388.68 319.26 388.68H371.26C374.993 388.68 378.247 390.013 381.02 392.68C383.793 395.347 385.18 398.707 385.18 402.76C385.18 406.707 383.58 410.227 380.38 413.32C377.18 416.413 365.713 426.92 345.98 444.84Z" fill="#6FC3C5"/>
</g>
<rect x="-72.5" y="342.5" width="571" height="135" stroke="white"/>
</g>
</g>
<rect x="0.5" y="0.5" width="411" height="495" stroke="white"/>
<defs>
<clipPath id="clip0_201_205">
<rect width="412" height="496" fill="white"/>
</clipPath>
<clipPath id="clip1_201_205">
<rect width="412" height="510" fill="white" transform="translate(0 -14)"/>
</clipPath>
<clipPath id="clip2_201_205">
<rect x="141.677" y="139.527" width="143.032" height="183.531" fill="white"/>
</clipPath>
<clipPath id="clip3_201_205">
<rect x="-73" y="342" width="572" height="136" fill="white"/>
</clipPath>
</defs>
</svg>
