<svg width="21" height="31" viewBox="0 0 21 31" fill="none" xmlns="http://www.w3.org/2000/svg">
<path d="M10.4749 15.9564C5.33819 15.9564 1.06881 12.3364 1.06881 8.05302C1.06881 3.62147 5.33819 0 10.4767 0C15.7898 0 19.8828 3.61992 19.8828 8.05302C19.8737 10.1562 18.8808 12.1703 17.1225 13.6526C15.3642 15.1349 12.9843 15.9641 10.5058 15.9579L10.4749 15.9564V15.9564ZM10.4749 4.65529C8.3002 4.65529 6.64555 6.20602 6.64555 8.05456C6.64555 9.90001 8.3002 11.3042 10.4767 11.3042C12.7405 11.3042 14.3079 9.90001 14.3079 8.05456C14.3097 6.20448 12.7405 4.65529 10.4749 4.65529ZM14.2206 22.5327L19.5355 26.8917C20.581 27.85 20.581 29.2541 19.5355 30.1413C18.4045 31.0996 16.6608 31.0996 15.7898 30.1413L10.4767 25.7082L5.33819 30.1413C4.81633 30.5842 4.1181 30.8048 3.3326 30.8048C2.72346 30.8048 2.02705 30.5826 1.4161 30.1413C0.37058 29.2541 0.37058 27.85 1.4161 26.8902L6.81647 22.5312C4.86621 22.0411 2.99537 21.3471 1.247 20.4651C-0.060359 19.8741 -0.320376 18.3974 0.376035 17.288C1.247 16.1801 2.81438 15.8854 4.20902 16.6245C6.0975 17.6025 8.26707 18.1199 10.4794 18.1199C12.6918 18.1199 14.8614 17.6025 16.7499 16.6245C18.1445 15.8854 19.7973 16.1801 20.581 17.288C21.3665 18.3974 21.0156 19.8725 19.7955 20.4651C18.1427 21.3523 16.2262 22.0173 14.2224 22.5343L14.2206 22.5327V22.5327Z" fill="white"/>
</svg>
