<svg width="223" height="270" viewBox="0 0 223 270" fill="none" xmlns="http://www.w3.org/2000/svg">
<g clip-path="url(#clip0_233_132)">
<path d="M78.6 7.79999C79.6667 5.79999 81.4667 4.39999 84 3.6C86.5333 2.79999 89.8667 2.39999 94 2.39999C98.2667 2.39999 101.667 2.79999 104.2 3.6C106.733 4.39999 108.467 5.79999 109.4 7.79999C110.467 9.8 111.067 11.6 111.2 13.2C111.467 14.6667 111.6 16.9333 111.6 20V139.4C111.6 142.467 111.467 144.8 111.2 146.4C111.067 147.867 110.467 149.533 109.4 151.4C107.4 155 101.733 156.8 92.4 156.8C83.2 156.8 78.0667 153.533 77 147C71.4 153.4 63.6 156.6 53.6 156.6C41.6 156.6 30.6667 151.4 20.8 141C10.9333 130.467 6 118.267 6 104.4C6 90.4 10.9333 78.1333 20.8 67.6C30.8 57.0667 41.7333 51.8 53.6 51.8C63.4667 51.8 71.1333 55.1333 76.6 61.8V19.8C76.6 16.7333 76.6667 14.4667 76.8 13C77.0667 11.4 77.6667 9.66666 78.6 7.79999ZM46.2 116.4C49.6667 120 53.8667 121.8 58.8 121.8C63.7333 121.8 67.8 120 71 116.4C74.3333 112.8 76 108.867 76 104.6C76 100.2 74.4 96.1333 71.2 92.4C68.1333 88.6667 63.9333 86.8 58.6 86.8C53.2667 86.8 49 88.6667 45.8 92.4C42.6 96 41 100 41 104.4C41 108.8 42.7333 112.8 46.2 116.4Z" fill="#6FC3C5"/>
<path d="M184.6 117.8C185.667 115.8 187.467 114.4 190 113.6C192.533 112.8 195.867 112.4 200 112.4C204.267 112.4 207.667 112.8 210.2 113.6C212.733 114.4 214.467 115.8 215.4 117.8C216.467 119.8 217.067 121.6 217.2 123.2C217.467 124.667 217.6 126.933 217.6 130V249.4C217.6 252.467 217.467 254.8 217.2 256.4C217.067 257.867 216.467 259.533 215.4 261.4C213.4 265 207.733 266.8 198.4 266.8C189.2 266.8 184.067 263.533 183 257C177.4 263.4 169.6 266.6 159.6 266.6C147.6 266.6 136.667 261.4 126.8 251C116.933 240.467 112 228.267 112 214.4C112 200.4 116.933 188.133 126.8 177.6C136.8 167.067 147.733 161.8 159.6 161.8C169.467 161.8 177.133 165.133 182.6 171.8V129.8C182.6 126.733 182.667 124.467 182.8 123C183.067 121.4 183.667 119.667 184.6 117.8ZM152.2 226.4C155.667 230 159.867 231.8 164.8 231.8C169.733 231.8 173.8 230 177 226.4C180.333 222.8 182 218.867 182 214.6C182 210.2 180.4 206.133 177.2 202.4C174.133 198.667 169.933 196.8 164.6 196.8C159.267 196.8 155 198.667 151.8 202.4C148.6 206 147 210 147 214.4C147 218.8 148.733 222.8 152.2 226.4Z" fill="#6FC3C5"/>
<path d="M43.5 76.9088L84.7994 104.5L43.5 132.091L43.5 76.9088Z" fill="white" stroke="#FFA004" stroke-width="8"/>
<path d="M148.5 186.909L189.799 214.5L148.5 242.091V186.909Z" fill="white" stroke="#FFA004" stroke-width="8"/>
</g>
<defs>
<clipPath id="clip0_233_132">
<rect width="223" height="270" fill="white"/>
</clipPath>
</defs>
</svg>
