<svg width="270" height="270" viewBox="0 0 270 270" fill="none" xmlns="http://www.w3.org/2000/svg">
<g clip-path="url(#clip0_233_132)">
<path d="M91.6 29.8C92.6667 27.8 94.4667 26.4 97 25.6C99.5333 24.8 102.867 24.4 107 24.4C111.267 24.4 114.667 24.8 117.2 25.6C119.733 26.4 121.467 27.8 122.4 29.8C123.467 31.8 124.067 33.6 124.2 35.2C124.467 36.6667 124.6 38.9333 124.6 42V161.4C124.6 164.467 124.467 166.8 124.2 168.4C124.067 169.867 123.467 171.533 122.4 173.4C120.4 177 114.733 178.8 105.4 178.8C96.2 178.8 91.0667 175.533 90 169C84.4 175.4 76.6 178.6 66.6 178.6C54.6 178.6 43.6667 173.4 33.8 163C23.9333 152.467 19 140.267 19 126.4C19 112.4 23.9333 100.133 33.8 89.6C43.8 79.0667 54.7333 73.8 66.6 73.8C76.4667 73.8 84.1333 77.1333 89.6 83.8V41.8C89.6 38.7333 89.6667 36.4667 89.8 35C90.0667 33.4 90.6667 31.6667 91.6 29.8ZM59.2 138.4C62.6667 142 66.8667 143.8 71.8 143.8C76.7333 143.8 80.8 142 84 138.4C87.3333 134.8 89 130.867 89 126.6C89 122.2 87.4 118.133 84.2 114.4C81.1333 110.667 76.9333 108.8 71.6 108.8C66.2667 108.8 62 110.667 58.8 114.4C55.6 118 54 122 54 126.4C54 130.8 55.7333 134.8 59.2 138.4Z" fill="#6FC3C5"/>
<path d="M214.6 93.8C215.667 91.8 217.467 90.4 220 89.6C222.533 88.8 225.867 88.4 230 88.4C234.267 88.4 237.667 88.8 240.2 89.6C242.733 90.4 244.467 91.8 245.4 93.8C246.467 95.8 247.067 97.6 247.2 99.2C247.467 100.667 247.6 102.933 247.6 106V225.4C247.6 228.467 247.467 230.8 247.2 232.4C247.067 233.867 246.467 235.533 245.4 237.4C243.4 241 237.733 242.8 228.4 242.8C219.2 242.8 214.067 239.533 213 233C207.4 239.4 199.6 242.6 189.6 242.6C177.6 242.6 166.667 237.4 156.8 227C146.933 216.467 142 204.267 142 190.4C142 176.4 146.933 164.133 156.8 153.6C166.8 143.067 177.733 137.8 189.6 137.8C199.467 137.8 207.133 141.133 212.6 147.8V105.8C212.6 102.733 212.667 100.467 212.8 99C213.067 97.4 213.667 95.6667 214.6 93.8ZM182.2 202.4C185.667 206 189.867 207.8 194.8 207.8C199.733 207.8 203.8 206 207 202.4C210.333 198.8 212 194.867 212 190.6C212 186.2 210.4 182.133 207.2 178.4C204.133 174.667 199.933 172.8 194.6 172.8C189.267 172.8 185 174.667 181.8 178.4C178.6 182 177 186 177 190.4C177 194.8 178.733 198.8 182.2 202.4Z" fill="#6FC3C5"/>
<path d="M56.5 98.9088L97.7994 126.5L56.5 154.091L56.5 98.9088Z" fill="white" stroke="#FFA004" stroke-width="8"/>
<path d="M180.5 163.909L221.799 191.5L180.5 219.091V163.909Z" fill="white" stroke="#FFA004" stroke-width="8"/>
</g>
<defs>
<clipPath id="clip0_233_132">
<rect width="270" height="270" fill="white"/>
</clipPath>
</defs>
</svg>
