<svg width="33" height="28" viewBox="0 0 33 28" fill="none" xmlns="http://www.w3.org/2000/svg">
<path d="M29.3883 6.87109C29.41 7.17337 29.41 7.47391 29.41 7.77446C29.41 16.9722 22.655 27.5707 10.31 27.5707C6.50667 27.5707 2.97333 26.429 0 24.4461C0.54 24.51 1.06 24.5325 1.62167 24.5325C4.64332 24.54 7.57941 23.4929 9.95667 21.5598C8.5557 21.5335 7.19763 21.0545 6.07206 20.1896C4.9465 19.3248 4.10964 18.1172 3.67833 16.7355C4.09333 16.7995 4.51 16.8426 4.94667 16.8426C5.54833 16.8426 6.15333 16.7563 6.715 16.606C5.1946 16.2879 3.82746 15.4338 2.84603 14.189C1.86461 12.9442 1.32949 11.3856 1.33167 9.77809V9.69173C2.22667 10.2082 3.265 10.5312 4.365 10.5744C3.44348 9.93974 2.68787 9.07859 2.16557 8.06773C1.64327 7.05687 1.37052 5.92775 1.37167 4.78109C1.37167 3.48909 1.70333 2.30418 2.285 1.27127C3.9719 3.42176 6.07584 5.18106 8.46056 6.43523C10.8453 7.6894 13.4576 8.41046 16.1283 8.55173C16.025 8.03355 15.9617 7.49636 15.9617 6.95746C15.9612 6.04366 16.1346 5.13874 16.4718 4.29442C16.809 3.45009 17.3035 2.68293 17.927 2.03678C18.5505 1.39063 19.2907 0.878165 20.1054 0.528681C20.9201 0.179197 21.7933 -0.000453201 22.675 8.58564e-07C24.6083 8.58564e-07 26.3533 0.839455 27.58 2.19709C29.083 1.89588 30.5242 1.32728 31.84 0.516455C31.339 2.12423 30.2896 3.48754 28.8883 4.351C30.2213 4.19344 31.5241 3.83015 32.7533 3.27318C31.8352 4.66035 30.6975 5.87678 29.3883 6.87109V6.87109Z" fill="#F1B758"/>
</svg>
