<svg width="32" height="21" viewBox="0 0 32 21" fill="none" xmlns="http://www.w3.org/2000/svg">
<path d="M31.2663 1.42211C31.4899 0.601664 31.2663 0 30.2091 0H26.7071C25.816 0 25.4088 0.520502 25.1852 1.09217C25.1852 1.09217 23.4046 5.8896 20.8815 9.00025C20.067 9.90539 19.6949 10.1912 19.251 10.1912C19.029 10.1912 18.7064 9.90539 18.7064 9.08494V1.42211C18.7064 0.437574 18.4493 0 17.7068 0H12.2037C11.648 0 11.3127 0.455218 11.3127 0.889263C11.3127 1.82087 12.5742 2.03613 12.7036 4.66157V10.3571C12.7036 11.6045 12.5008 11.8321 12.0536 11.8321C10.8671 11.8321 7.97986 7.01706 6.26635 1.50504C5.9326 0.434045 5.59564 0.00176512 4.70136 0.00176512H1.20089C0.199616 0.00176512 0 0.522266 0 1.09393C0 2.12082 1.18652 7.20232 5.52698 13.923C8.42061 18.5122 12.4944 21 16.2056 21C18.4302 21 18.7048 20.4477 18.7048 19.495V16.0261C18.7048 14.9216 18.9172 14.6993 19.6215 14.6993C20.1389 14.6993 21.03 14.9887 23.1076 17.1995C25.4806 19.8214 25.8735 20.9982 27.2069 20.9982H30.7074C31.7071 20.9982 32.2069 20.446 31.9194 19.3556C31.6049 18.2705 30.471 16.6913 28.9667 14.8228C28.1491 13.7571 26.9274 12.6102 26.5554 12.0368C26.0364 11.2975 26.1865 10.9711 26.5554 10.3147C26.557 10.3165 30.8224 3.67879 31.2663 1.42211V1.42211Z" fill="white"/>
</svg>
